<svg xmlns="http://www.w3.org/2000/svg" width="48" height="48" viewBox="0 0 24 24">
  <g color="#0A66C2">
    <rect width="50" height="50" fill="currentcolor" />
    <circle r="25" cx="70" cy="70" stroke="currentcolor" fill="none" stroke-width="5" />
  </g>
<path d="M0 0v24h24v-24h-24zm8 19h-3v-11h3v11zm-1.5-12.268c-.966 0-1.75-.79-1.75-1.764s.784-1.764 1.75-1.764 1.75.79 1.75 1.764-.783 1.764-1.75 1.764zm13.5 12.268h-3v-5.604c0-3.368-4-3.113-4 0v5.604h-3v-11h3v1.765c1.397-2.586 7-2.777 7 2.476v6.759z" fill="#fff"/></svg>